<svg xmlns="http://www.w3.org/2000/svg" fill="none" viewBox="352.32 858.59 2072.76 1262.04">
<path d="M1679.11 1072.96C1645.9 1157.28 1799.96 1148.59 1532.09 1166.85C1197.26 1189.68 1314.78 1117.47 1442.36 1352.47C1569.94 1587.47 1620.77 1445.88 1380.16 1509.88C1187.67 1561.08 1298.8 1529.99 1253.87 1407.46C1185.53 1306.74 1267.67 1192.91 1124.24 1388.23C980.802 1583.56 1062.39 1470.29 959.192 1396.91" stroke="url(#paint0_linear_1245_3)" stroke-width="4"/>
<path d="M1690.21 1069.79C1657 1154.11 1806.96 1148.02 1539.09 1166.29C1204.26 1189.11 1319.29 1122.06 1446.87 1357.06C1574.45 1592.06 1623.56 1454.85 1382.95 1518.85C1190.47 1570.06 1298.03 1536.09 1253.1 1413.56C1184.77 1312.84 1263.27 1198.46 1119.83 1393.78C976.399 1589.11 1053.36 1476.06 950.163 1402.68" stroke="url(#paint1_linear_1245_3)" stroke-width="4"/>
<path d="M1701.31 1066.62C1668.1 1150.94 1813.96 1147.45 1546.09 1165.71C1211.26 1188.54 1323.8 1126.65 1451.38 1361.65C1578.96 1596.65 1626.36 1463.82 1385.75 1527.83C1193.26 1579.03 1297.27 1542.19 1252.34 1419.66C1184.01 1318.94 1258.87 1204 1115.43 1399.33C971.999 1594.65 1044.34 1481.82 941.137 1408.44" stroke="url(#paint2_linear_1245_3)" stroke-width="4"/>
<path d="M1712.42 1063.45C1679.21 1147.77 1820.95 1146.88 1553.09 1165.14C1218.25 1187.96 1328.31 1131.24 1455.89 1366.25C1583.47 1601.25 1629.15 1472.8 1388.55 1536.8C1196.06 1588 1296.51 1548.29 1251.58 1425.76C1183.24 1325.04 1254.47 1209.55 1111.03 1404.87C967.597 1600.2 1035.31 1487.59 932.108 1414.21" stroke="url(#paint3_linear_1245_3)" stroke-width="4"/>
<path d="M1723.52 1060.28C1690.31 1144.6 1827.95 1146.31 1560.08 1164.57C1225.25 1187.39 1332.83 1135.84 1460.41 1370.84C1587.99 1605.84 1631.95 1481.77 1391.34 1545.77C1198.86 1596.98 1295.74 1554.39 1250.82 1431.86C1182.48 1331.14 1250.07 1215.1 1106.63 1410.42C963.195 1605.74 1026.28 1493.35 923.081 1419.97" stroke="url(#paint4_linear_1245_3)" stroke-width="4"/>
<path d="M1734.63 1057.11C1701.42 1141.43 1834.95 1145.74 1567.08 1164C1232.25 1186.82 1337.34 1140.43 1464.92 1375.43C1592.5 1610.43 1634.74 1490.75 1394.14 1554.75C1201.65 1605.95 1294.98 1560.49 1250.05 1437.96C1181.72 1337.24 1245.67 1220.64 1102.23 1415.97C958.794 1611.29 1017.25 1499.12 914.053 1425.74" stroke="url(#paint5_linear_1245_3)" stroke-width="4"/>
<path d="M1745.73 1053.94C1712.52 1138.26 1841.94 1145.17 1574.08 1163.43C1239.24 1186.25 1341.85 1145.02 1469.43 1380.03C1597.01 1615.03 1637.54 1499.72 1396.93 1563.72C1204.44 1614.92 1294.21 1566.59 1249.29 1444.06C1180.95 1343.34 1241.26 1226.19 1097.83 1421.51C954.391 1616.84 1008.22 1504.88 905.023 1431.51" stroke="url(#paint6_linear_1245_3)" stroke-width="4"/>
<path d="M1756.83 1050.77C1723.62 1135.09 1848.94 1144.6 1581.07 1162.86C1246.24 1185.68 1346.36 1149.62 1473.94 1384.62C1601.52 1619.62 1640.33 1508.7 1399.72 1572.7C1207.24 1623.9 1293.45 1572.69 1248.52 1450.16C1180.19 1349.44 1236.86 1231.73 1093.42 1427.06C949.989 1622.38 999.195 1510.65 895.995 1437.27" stroke="url(#paint7_linear_1245_3)" stroke-width="4"/>
<path d="M1767.94 1047.6C1734.73 1131.92 1855.94 1144.02 1588.07 1162.28C1253.24 1185.11 1350.88 1154.21 1478.46 1389.21C1606.04 1624.21 1643.13 1517.67 1402.52 1581.67C1210.03 1632.87 1292.69 1578.79 1247.76 1456.26C1179.42 1355.54 1232.46 1237.28 1089.02 1432.6C945.587 1627.93 990.167 1516.41 886.967 1443.04" stroke="url(#paint8_linear_1245_3)" stroke-width="4"/>
<path d="M1779.04 1044.43C1745.83 1128.75 1862.94 1143.45 1595.07 1161.71C1260.24 1184.54 1355.39 1158.8 1482.97 1393.8C1610.55 1628.8 1645.92 1526.64 1405.32 1590.65C1212.83 1641.85 1291.92 1584.89 1247 1462.36C1178.66 1361.64 1228.06 1242.83 1084.62 1438.15C941.186 1633.48 981.139 1522.18 877.939 1448.8" stroke="url(#paint9_linear_1245_3)" stroke-width="4"/>
<path d="M1790.15 1041.26C1756.94 1125.58 1869.94 1142.88 1602.07 1161.14C1267.24 1183.96 1359.9 1163.39 1487.48 1398.39C1615.06 1633.39 1648.72 1535.62 1408.11 1599.62C1215.63 1650.82 1291.16 1590.99 1246.23 1468.46C1177.9 1367.74 1223.66 1248.37 1080.22 1443.7C936.786 1639.02 972.113 1527.94 868.912 1454.57" stroke="url(#paint10_linear_1245_3)" stroke-width="4"/>
<path d="M1801.25 1038.09C1768.04 1122.41 1876.93 1142.31 1609.07 1160.57C1274.23 1183.39 1364.42 1167.99 1492 1402.99C1619.58 1637.99 1651.51 1544.59 1410.91 1608.59C1218.42 1659.79 1290.4 1597.09 1245.47 1474.56C1177.14 1373.84 1219.26 1253.92 1075.82 1449.24C932.384 1644.57 963.085 1533.71 859.884 1460.33" stroke="url(#paint11_linear_1245_3)" stroke-width="4"/>
<path d="M1812.35 1034.92C1779.14 1119.24 1883.93 1141.74 1616.06 1160C1281.23 1182.82 1368.93 1172.58 1496.51 1407.58C1624.09 1642.58 1654.31 1553.57 1413.7 1617.57C1221.22 1668.77 1289.63 1603.19 1244.71 1480.66C1176.37 1379.94 1214.85 1259.47 1071.42 1454.79C927.983 1650.11 954.057 1539.48 850.857 1466.1" stroke="url(#paint12_linear_1245_3)" stroke-width="4"/>
<path d="M1823.46 1031.75C1790.25 1116.07 1890.93 1141.17 1623.06 1159.43C1288.23 1182.25 1373.44 1177.17 1501.02 1412.17C1628.6 1647.17 1657.1 1562.54 1416.5 1626.54C1224.01 1677.74 1288.87 1609.29 1243.94 1486.76C1175.61 1386.04 1210.45 1265.01 1067.01 1460.34C923.579 1655.66 945.027 1545.24 841.827 1471.86" stroke="url(#paint13_linear_1245_3)" stroke-width="4"/>
<path d="M1834.56 1028.58C1801.35 1112.9 1897.93 1140.59 1630.06 1158.85C1295.23 1181.68 1377.95 1181.76 1505.53 1416.76C1633.11 1651.76 1659.9 1571.51 1419.29 1635.51C1226.81 1686.71 1288.11 1615.39 1243.18 1492.86C1174.85 1392.14 1206.05 1270.56 1062.62 1465.88C919.181 1661.2 936.003 1551 832.802 1477.63" stroke="url(#paint14_linear_1245_3)" stroke-width="4"/>
<path d="M1845.66 1025.41C1812.45 1109.73 1904.92 1140.02 1637.06 1158.28C1302.22 1181.11 1382.46 1186.36 1510.04 1421.36C1637.62 1656.36 1662.69 1580.49 1422.09 1644.49C1229.6 1695.69 1287.34 1621.49 1242.42 1498.96C1174.08 1398.24 1201.65 1276.1 1058.21 1471.43C914.777 1666.75 926.971 1556.77 823.771 1483.39" stroke="url(#paint15_linear_1245_3)" stroke-width="4"/>
<path d="M1856.77 1022.24C1823.56 1106.56 1911.92 1139.45 1644.06 1157.71C1309.22 1180.54 1386.98 1190.95 1514.56 1425.95C1642.14 1660.95 1665.49 1589.46 1424.88 1653.46C1232.4 1704.66 1286.58 1627.59 1241.65 1505.06C1173.32 1404.34 1197.25 1281.65 1053.81 1476.97C910.377 1672.3 917.945 1562.54 814.745 1489.16" stroke="url(#paint16_linear_1245_3)" stroke-width="4"/>
<path d="M1867.88 1019.07C1834.67 1103.39 1918.92 1138.88 1651.05 1157.14C1316.22 1179.96 1391.49 1195.54 1519.07 1430.54C1646.65 1665.54 1668.29 1598.43 1427.68 1662.44C1235.19 1713.64 1285.82 1633.69 1240.89 1511.16C1172.56 1410.44 1192.85 1287.2 1049.41 1482.52C905.977 1677.84 908.919 1568.3 805.719 1494.93" stroke="url(#paint17_linear_1245_3)" stroke-width="4"/>
<path d="M1878.98 1015.9C1845.77 1100.22 1925.92 1138.31 1658.05 1156.57C1323.22 1179.39 1396.01 1200.13 1523.59 1435.13C1651.17 1670.14 1671.08 1607.41 1430.47 1671.41C1237.99 1722.61 1285.06 1639.79 1240.13 1517.26C1171.79 1416.54 1188.45 1292.74 1045.01 1488.07C901.576 1683.39 899.891 1574.07 796.69 1500.69" stroke="url(#paint18_linear_1245_3)" stroke-width="4"/>
<path d="M1890.08 1012.73C1856.87 1097.05 1932.92 1137.74 1665.05 1156C1330.22 1178.82 1400.52 1204.73 1528.1 1439.73C1655.68 1674.73 1673.88 1616.38 1433.27 1680.38C1240.78 1731.58 1284.29 1645.89 1239.37 1523.36C1171.03 1422.64 1184.04 1298.29 1040.61 1493.61C897.174 1688.94 890.863 1579.83 787.662 1506.45" stroke="url(#paint19_linear_1245_3)" stroke-width="4"/>
<path d="M1901.19 1009.57C1867.98 1093.88 1939.91 1137.17 1672.05 1155.43C1337.21 1178.25 1405.03 1209.32 1532.61 1444.32C1660.19 1679.32 1676.67 1625.36 1436.06 1689.36C1243.58 1740.56 1283.53 1651.99 1238.6 1529.46C1170.26 1428.74 1179.64 1303.84 1036.21 1499.16C892.771 1694.48 881.833 1585.6 778.633 1512.22" stroke="url(#paint20_linear_1245_3)" stroke-width="4"/>
<path d="M1912.29 1006.4C1879.08 1090.71 1946.91 1136.59 1679.04 1154.85C1344.21 1177.68 1409.54 1213.91 1537.12 1448.91C1664.7 1683.91 1679.47 1634.33 1438.86 1698.33C1246.37 1749.53 1282.76 1658.09 1237.84 1535.56C1169.5 1434.84 1175.24 1309.38 1031.8 1504.7C888.369 1700.03 872.805 1591.36 769.605 1517.99" stroke="url(#paint21_linear_1245_3)" stroke-width="4"/>
<path d="M1923.4 1003.22C1890.19 1087.54 1953.91 1136.02 1686.04 1154.28C1351.21 1177.11 1414.06 1218.5 1541.64 1453.5C1669.22 1688.5 1682.26 1643.3 1441.65 1707.3C1249.17 1758.51 1282 1664.19 1237.08 1541.66C1168.74 1440.94 1170.84 1314.93 1027.4 1510.25C883.969 1705.57 863.779 1597.13 760.578 1523.75" stroke="url(#paint22_linear_1245_3)" stroke-width="4"/>
<path d="M1934.5 1000.06C1901.29 1084.37 1960.91 1135.45 1693.04 1153.71C1358.21 1176.54 1418.57 1223.1 1546.15 1458.1C1673.73 1693.1 1685.06 1652.28 1444.45 1716.28C1251.96 1767.48 1281.24 1670.29 1236.31 1547.76C1167.98 1447.04 1166.44 1320.47 1023 1515.8C879.568 1711.12 854.751 1602.89 751.55 1529.52" stroke="url(#paint23_linear_1245_3)" stroke-width="4"/>
<path d="M1945.6 996.887C1912.39 1081.2 1967.9 1134.88 1700.04 1153.14C1365.2 1175.96 1423.08 1227.69 1550.66 1462.69C1678.24 1697.69 1687.85 1661.25 1447.24 1725.25C1254.76 1776.46 1280.47 1676.39 1235.55 1553.86C1167.21 1453.14 1162.04 1326.02 1018.6 1521.34C875.164 1716.67 845.721 1608.66 742.521 1535.28" stroke="url(#paint24_linear_1245_3)" stroke-width="4"/>
<path d="M1956.71 993.718C1923.5 1078.03 1974.9 1134.31 1707.04 1152.57C1372.2 1175.39 1427.59 1232.28 1555.17 1467.28C1682.75 1702.29 1690.65 1670.23 1450.04 1734.23C1257.55 1785.43 1279.71 1682.49 1234.79 1559.96C1166.45 1459.24 1157.64 1331.57 1014.2 1526.89C870.765 1722.22 836.695 1614.43 733.495 1541.05" stroke="url(#paint25_linear_1245_3)" stroke-width="4"/>
<path d="M1967.81 990.547C1934.6 1074.86 1981.9 1133.74 1714.03 1152C1379.2 1174.82 1432.1 1236.88 1559.68 1471.88C1687.26 1706.88 1693.44 1679.2 1452.83 1743.2C1260.35 1794.4 1278.95 1688.59 1234.02 1566.06C1165.68 1465.34 1153.23 1337.11 1009.8 1532.44C866.361 1727.76 827.665 1620.19 724.465 1546.81" stroke="url(#paint26_linear_1245_3)" stroke-width="4"/>
<path d="M1978.92 987.375C1945.71 1071.69 1988.9 1133.16 1721.03 1151.42C1386.2 1174.25 1436.62 1241.47 1564.2 1476.47C1691.78 1711.47 1696.24 1688.17 1455.63 1752.17C1263.14 1803.38 1278.19 1694.69 1233.26 1572.16C1164.92 1471.44 1148.83 1342.66 1005.4 1537.98C861.961 1733.3 818.639 1625.95 715.438 1552.58" stroke="url(#paint27_linear_1245_3)" stroke-width="4"/>
<path d="M1990.02 984.207C1956.81 1068.52 1995.89 1132.59 1728.03 1150.85C1393.19 1173.68 1441.13 1246.06 1568.71 1481.06C1696.29 1716.06 1699.03 1697.15 1458.42 1761.15C1265.94 1812.35 1277.42 1700.79 1232.49 1578.26C1164.16 1477.54 1144.43 1348.2 1000.99 1543.53C857.558 1738.85 809.609 1631.72 706.408 1558.34" stroke="url(#paint28_linear_1245_3)" stroke-width="4"/>
<path d="M2001.12 981.039C1967.91 1065.35 2002.89 1132.02 1735.02 1150.28C1400.19 1173.11 1445.64 1250.65 1573.22 1485.66C1700.8 1720.66 1701.82 1706.12 1461.22 1770.13C1268.73 1821.33 1276.66 1706.89 1231.73 1584.36C1163.39 1483.65 1140.03 1353.75 996.59 1549.08C853.155 1744.4 800.579 1637.49 697.379 1564.11" stroke="url(#paint29_linear_1245_3)" stroke-width="4"/>
<path d="M2012.23 977.865C1979.02 1062.18 2009.89 1131.45 1742.02 1149.71C1407.19 1172.53 1450.16 1255.24 1577.74 1490.24C1705.32 1725.24 1704.63 1715.09 1464.02 1779.1C1271.53 1830.3 1275.9 1712.99 1230.97 1590.46C1162.63 1489.74 1135.63 1359.29 992.194 1554.62C848.759 1749.94 791.557 1643.25 688.356 1569.87" stroke="url(#paint30_linear_1245_3)" stroke-width="4"/>
<path d="M2023.33 974.697C1990.12 1059.01 2016.89 1130.88 1749.02 1149.14C1414.19 1171.96 1454.67 1259.84 1582.25 1494.84C1709.83 1729.84 1707.42 1724.07 1466.81 1788.07C1274.33 1839.27 1275.13 1719.09 1230.21 1596.56C1161.87 1495.84 1131.23 1364.84 987.791 1560.17C844.356 1755.49 782.527 1649.02 679.327 1575.64" stroke="url(#paint31_linear_1245_3)" stroke-width="4"/>
<path d="M2034.43 971.527C2001.22 1055.84 2023.88 1130.31 1756.02 1148.57C1421.18 1171.39 1459.18 1264.43 1586.76 1499.43C1714.34 1734.43 1710.21 1733.04 1469.6 1797.04C1277.12 1848.25 1274.37 1725.19 1229.44 1602.66C1161.1 1501.94 1126.82 1370.39 983.387 1565.71C839.952 1761.04 773.497 1654.78 670.296 1581.41" stroke="url(#paint32_linear_1245_3)" stroke-width="4"/>
<path d="M2045.54 968.357C2012.33 1052.67 2030.88 1129.73 1763.02 1147.99C1428.18 1170.82 1463.69 1269.02 1591.27 1504.02C1718.85 1739.02 1713.01 1742.02 1472.4 1806.02C1279.92 1857.22 1273.61 1731.29 1228.68 1608.76C1160.34 1508.04 1122.42 1375.93 978.988 1571.26C835.552 1766.58 764.471 1660.55 661.27 1587.17" stroke="url(#paint33_linear_1245_3)" stroke-width="4"/>
<path d="M2056.64 965.189C2023.43 1049.51 2037.88 1129.16 1770.01 1147.42C1435.18 1170.25 1468.21 1273.62 1595.79 1508.62C1723.37 1743.62 1715.8 1750.99 1475.19 1814.99C1282.71 1866.2 1272.84 1737.39 1227.91 1614.86C1159.58 1514.15 1118.02 1381.48 974.584 1576.81C831.149 1772.13 755.441 1666.31 652.241 1592.94" stroke="url(#paint34_linear_1245_3)" stroke-width="4"/>
<path d="M2067.75 962.02C2034.54 1046.34 2044.88 1128.59 1777.01 1146.85C1442.18 1169.68 1472.72 1278.21 1600.3 1513.21C1727.88 1748.21 1718.6 1759.97 1477.99 1823.97C1285.5 1875.17 1272.08 1743.49 1227.15 1620.97C1158.81 1520.25 1113.62 1387.03 970.183 1582.35C826.748 1777.68 746.413 1672.08 643.213 1598.7" stroke="url(#paint35_linear_1245_3)" stroke-width="4"/>
<path d="M2078.85 958.852C2045.64 1043.17 2051.87 1128.02 1784 1146.28C1449.17 1169.11 1477.23 1282.8 1604.81 1517.8C1732.39 1752.81 1721.39 1768.94 1480.78 1832.94C1288.3 1884.15 1271.31 1749.6 1226.38 1627.07C1158.05 1526.35 1109.22 1392.58 965.78 1587.9C822.344 1783.22 737.383 1677.85 634.183 1604.47" stroke="url(#paint36_linear_1245_3)" stroke-width="4"/>
<path d="M2089.96 955.678C2056.75 1039.99 2058.87 1127.45 1791.01 1145.71C1456.18 1168.53 1481.75 1287.39 1609.33 1522.39C1736.91 1757.39 1724.19 1777.91 1483.58 1841.91C1291.1 1893.12 1270.55 1755.69 1225.63 1633.16C1157.29 1532.44 1104.82 1398.12 961.384 1593.44C817.948 1788.77 728.361 1683.61 625.16 1610.23" stroke="url(#paint37_linear_1245_3)" stroke-width="4"/>
<path d="M2101.06 952.508C2067.85 1036.82 2065.87 1126.88 1798 1145.14C1463.17 1167.96 1486.26 1291.99 1613.84 1526.99C1741.42 1761.99 1726.98 1786.89 1486.38 1850.89C1293.89 1902.09 1269.79 1761.79 1224.86 1639.26C1156.52 1538.54 1100.42 1403.66 956.98 1598.99C813.544 1794.31 719.331 1689.37 616.13 1616" stroke="url(#paint38_linear_1245_3)" stroke-width="4"/>
<path d="M2112.16 949.34C2078.95 1033.66 2072.87 1126.31 1805 1144.57C1470.17 1167.39 1490.77 1296.58 1618.35 1531.58C1745.93 1766.58 1729.78 1795.86 1489.17 1859.86C1296.68 1911.06 1269.02 1767.89 1224.1 1645.37C1155.76 1544.65 1096.01 1409.21 952.577 1604.54C809.141 1799.86 710.301 1695.14 607.101 1621.76" stroke="url(#paint39_linear_1245_3)" stroke-width="4"/>
<path d="M2123.27 946.169C2090.06 1030.49 2079.86 1125.73 1812 1143.99C1477.17 1166.82 1495.28 1301.17 1622.86 1536.17C1750.44 1771.17 1732.58 1804.84 1491.97 1868.84C1299.48 1920.04 1268.26 1773.99 1223.33 1651.46C1155 1550.75 1091.61 1414.76 948.177 1610.08C804.742 1805.41 701.275 1700.91 598.074 1627.53" stroke="url(#paint40_linear_1245_3)" stroke-width="4"/>
<path d="M2134.38 942.998C2101.16 1027.31 2086.86 1125.16 1819 1143.42C1484.17 1166.25 1499.8 1305.76 1627.38 1540.76C1754.96 1775.76 1735.37 1813.81 1494.76 1877.81C1302.28 1929.01 1267.5 1780.09 1222.57 1657.56C1154.24 1556.84 1087.21 1420.3 943.777 1615.63C800.341 1810.95 692.249 1706.67 589.048 1633.29" stroke="url(#paint41_linear_1245_3)" stroke-width="4"/>
<path d="M2145.48 939.83C2112.27 1024.15 2093.86 1124.59 1825.99 1142.85C1491.16 1165.68 1504.31 1310.36 1631.89 1545.36C1759.47 1780.36 1738.17 1822.78 1497.56 1886.79C1305.07 1937.99 1266.73 1786.19 1221.81 1663.67C1153.47 1562.95 1082.81 1425.85 939.374 1621.17C795.938 1816.5 683.219 1712.44 580.018 1639.06" stroke="url(#paint42_linear_1245_3)" stroke-width="4"/>
<path d="M2156.58 936.659C2123.37 1020.98 2100.86 1124.02 1832.99 1142.28C1498.16 1165.1 1508.82 1314.95 1636.4 1549.95C1763.98 1784.95 1740.96 1831.76 1500.35 1895.76C1307.87 1946.96 1265.97 1792.29 1221.05 1669.76C1152.71 1569.04 1078.41 1431.39 934.974 1626.72C791.539 1822.04 674.193 1718.2 570.992 1644.82" stroke="url(#paint43_linear_1245_3)" stroke-width="4"/>
<path d="M2167.69 933.489C2134.47 1017.81 2107.85 1123.45 1839.99 1141.71C1505.16 1164.53 1513.33 1319.54 1640.91 1554.54C1768.49 1789.54 1743.76 1840.73 1503.15 1904.73C1310.66 1955.93 1265.21 1798.39 1220.28 1675.86C1151.94 1575.14 1074.01 1436.94 930.57 1632.27C787.135 1827.59 665.163 1723.97 561.962 1650.59" stroke="url(#paint44_linear_1245_3)" stroke-width="4"/>
<path d="M2178.79 930.321C2145.58 1014.64 2114.85 1122.88 1846.98 1141.14C1512.15 1163.96 1517.84 1324.14 1645.42 1559.14C1773 1794.14 1746.55 1849.71 1505.94 1913.71C1313.45 1964.91 1264.44 1804.5 1219.52 1681.97C1151.18 1581.25 1069.6 1442.49 926.167 1637.81C782.732 1833.14 656.133 1729.73 552.932 1656.36" stroke="url(#paint45_linear_1245_3)" stroke-width="4"/>
<path d="M2189.89 927.151C2156.68 1011.47 2121.85 1122.31 1853.98 1140.57C1519.15 1163.39 1522.36 1328.73 1649.94 1563.73C1777.52 1798.73 1749.35 1858.68 1508.74 1922.68C1316.25 1973.88 1263.68 1810.59 1218.75 1688.07C1150.42 1587.35 1065.2 1448.03 921.768 1643.36C778.332 1838.68 647.107 1735.5 543.906 1662.12" stroke="url(#paint46_linear_1245_3)" stroke-width="4"/>
<path d="M2201 923.983C2167.79 1008.3 2128.85 1121.74 1860.98 1140C1526.15 1162.82 1526.87 1333.32 1654.45 1568.32C1782.03 1803.32 1752.14 1867.66 1511.53 1931.66C1319.05 1982.86 1262.92 1816.7 1217.99 1694.17C1149.65 1593.45 1060.8 1453.58 917.364 1648.91C773.929 1844.23 638.077 1741.27 534.877 1667.89" stroke="url(#paint47_linear_1245_3)" stroke-width="4"/>
<path d="M2212.1 920.812C2178.89 1005.13 2135.85 1121.16 1867.98 1139.42C1533.15 1162.25 1531.38 1337.91 1658.96 1572.91C1786.54 1807.91 1754.94 1876.63 1514.33 1940.63C1321.84 1991.83 1262.15 1822.8 1217.23 1700.27C1148.89 1599.55 1056.4 1459.13 912.965 1654.45C769.529 1849.78 629.051 1747.03 525.851 1673.65" stroke="url(#paint48_linear_1245_3)" stroke-width="4"/>
<path d="M2223.21 917.64C2190 1001.96 2142.84 1120.59 1874.98 1138.85C1540.15 1161.68 1535.9 1342.5 1663.48 1577.5C1791.06 1812.5 1757.73 1885.6 1517.13 1949.6C1324.64 2000.8 1261.39 1828.89 1216.47 1706.36C1148.13 1605.65 1052 1464.67 908.565 1660C765.129 1855.32 620.025 1752.79 516.824 1679.42" stroke="url(#paint49_linear_1245_3)" stroke-width="4"/>
<path d="M2234.31 914.473C2201.1 998.789 2149.84 1120.02 1881.97 1138.28C1547.14 1161.11 1540.41 1347.1 1667.99 1582.1C1795.57 1817.1 1760.53 1894.58 1519.92 1958.58C1327.43 2009.78 1260.63 1835 1215.7 1712.47C1147.36 1611.75 1047.6 1470.22 904.161 1665.54C760.726 1860.87 610.995 1758.56 507.794 1685.18" stroke="url(#paint50_linear_1245_3)" stroke-width="4"/>
<path d="M2245.41 911.303C2212.2 995.619 2156.84 1119.45 1888.97 1137.71C1554.14 1160.53 1544.92 1351.69 1672.5 1586.69C1800.08 1821.69 1763.32 1903.55 1522.71 1967.55C1330.23 2018.75 1259.86 1841.1 1214.93 1718.57C1146.6 1617.85 1043.19 1475.77 899.758 1671.09C756.322 1866.41 601.965 1764.33 498.764 1690.95" stroke="url(#paint51_linear_1245_3)" stroke-width="4"/>
<path d="M2256.52 908.132C2223.31 992.448 2163.84 1118.88 1895.97 1137.14C1561.14 1159.96 1549.43 1356.28 1677.01 1591.28C1804.59 1826.28 1766.12 1912.52 1525.51 1976.52C1333.02 2027.73 1259.1 1847.2 1214.17 1724.67C1145.84 1623.95 1038.79 1481.31 895.358 1676.64C751.923 1871.96 592.939 1770.09 489.738 1696.71" stroke="url(#paint52_linear_1245_3)" stroke-width="4"/>
<path d="M2267.62 904.963C2234.41 989.279 2170.83 1118.31 1902.97 1136.57C1568.13 1159.39 1553.95 1360.88 1681.53 1595.88C1809.11 1830.88 1768.91 1921.5 1528.3 1985.5C1335.82 2036.7 1258.34 1853.3 1213.41 1730.77C1145.07 1630.05 1034.39 1486.86 890.957 1682.18C747.521 1877.51 583.911 1775.86 480.71 1702.48" stroke="url(#paint53_linear_1245_3)" stroke-width="4"/>
<path d="M2278.73 901.793C2245.52 986.109 2177.83 1117.73 1909.97 1135.99C1575.13 1158.82 1558.46 1365.47 1686.04 1600.47C1813.62 1835.47 1771.71 1930.47 1531.1 1994.47C1338.62 2045.67 1257.58 1859.4 1212.65 1736.87C1144.31 1636.15 1029.99 1492.4 886.557 1687.73C743.122 1883.05 574.885 1781.62 471.684 1708.25" stroke="url(#paint54_linear_1245_3)" stroke-width="4"/>
<path d="M2289.83 898.624C2256.62 982.941 2184.83 1117.16 1916.96 1135.42C1582.13 1158.25 1562.97 1370.06 1690.55 1605.06C1818.13 1840.06 1774.5 1939.45 1533.89 2003.45C1341.41 2054.65 1256.81 1865.5 1211.88 1742.97C1143.55 1642.25 1025.59 1497.95 882.154 1693.28C738.718 1888.6 565.855 1787.39 462.655 1714.01" stroke="url(#paint55_linear_1245_3)" stroke-width="4"/>
<path d="M2300.94 895.453C2267.73 979.769 2191.83 1116.59 1923.96 1134.85C1589.13 1157.68 1567.49 1374.65 1695.07 1609.65C1822.65 1844.65 1777.3 1948.42 1536.69 2012.42C1344.21 2063.62 1256.05 1871.6 1211.12 1749.07C1142.79 1648.35 1021.19 1503.5 877.754 1698.82C734.318 1894.15 556.829 1793.15 453.628 1719.78" stroke="url(#paint56_linear_1245_3)" stroke-width="4"/>
<path d="M2312.04 892.282C2278.83 976.598 2198.83 1116.02 1930.96 1134.28C1596.13 1157.1 1572 1379.24 1699.58 1614.24C1827.16 1849.25 1780.1 1957.39 1539.49 2021.39C1347 2072.59 1255.29 1877.7 1210.36 1755.17C1142.02 1654.45 1016.79 1509.04 873.354 1704.36C729.918 1899.69 547.802 1798.92 444.602 1725.54" stroke="url(#paint57_linear_1245_3)" stroke-width="4"/>
<path d="M2323.14 889.114C2289.93 973.43 2205.82 1115.45 1937.96 1133.71C1603.12 1156.53 1576.51 1383.84 1704.09 1618.84C1831.67 1853.84 1782.89 1966.37 1542.28 2030.37C1349.8 2081.57 1254.52 1883.8 1209.59 1761.27C1141.26 1660.55 1012.39 1514.59 868.951 1709.91C725.515 1905.24 538.773 1804.68 435.572 1731.31" stroke="url(#paint58_linear_1245_3)" stroke-width="4"/>
<path d="M2334.25 885.943C2301.04 970.259 2212.82 1114.88 1944.96 1133.14C1610.12 1155.96 1581.03 1388.43 1708.61 1623.43C1836.19 1858.43 1785.69 1975.34 1545.08 2039.34C1352.59 2090.54 1253.76 1889.9 1208.83 1767.37C1140.5 1666.65 1007.99 1520.13 864.551 1715.46C721.116 1910.78 529.747 1810.45 426.546 1737.07" stroke="url(#paint59_linear_1245_3)" stroke-width="4"/>
<path d="M2345.35 882.773C2312.14 967.089 2219.82 1114.3 1951.95 1132.56C1617.12 1155.39 1585.54 1393.02 1713.12 1628.02C1840.7 1863.02 1788.48 1984.31 1547.87 2048.32C1355.39 2099.52 1253 1896 1208.07 1773.47C1139.73 1672.75 1003.58 1525.68 860.148 1721C716.712 1916.33 520.717 1816.21 417.516 1742.84" stroke="url(#paint60_linear_1245_3)" stroke-width="4"/>
<path d="M2356.45 879.607C2323.24 963.923 2226.81 1113.74 1958.95 1132C1624.12 1154.82 1590.05 1397.62 1717.63 1632.62C1845.21 1867.62 1791.27 1993.29 1550.67 2057.29C1358.18 2108.49 1252.23 1902.1 1207.3 1779.57C1138.97 1678.85 999.18 1531.23 855.745 1726.55C712.309 1921.88 511.687 1821.98 408.487 1748.6" stroke="url(#paint61_linear_1245_3)" stroke-width="4"/>
<path d="M2367.56 876.436C2334.35 960.752 2233.81 1113.16 1965.94 1131.42C1631.11 1154.25 1594.56 1402.21 1722.14 1637.21C1849.72 1872.21 1794.07 2002.26 1553.46 2066.27C1360.97 2117.47 1251.46 1908.2 1206.54 1785.67C1138.2 1684.95 994.776 1536.77 851.341 1732.1C707.905 1927.42 502.657 1827.75 399.457 1754.37" stroke="url(#paint62_linear_1245_3)" stroke-width="4"/>
<path d="M2378.67 873.263C2345.46 957.58 2240.81 1112.59 1972.95 1130.85C1638.11 1153.67 1599.08 1406.8 1726.66 1641.8C1854.24 1876.8 1796.87 2011.24 1556.26 2075.24C1363.77 2126.44 1250.71 1914.3 1205.78 1791.77C1137.44 1691.05 990.38 1542.32 846.945 1737.64C703.509 1932.97 493.635 1833.51 390.434 1760.13" stroke="url(#paint63_linear_1245_3)" stroke-width="4"/>
<path d="M2389.77 870.095C2356.56 954.411 2247.81 1112.02 1979.94 1130.28C1645.11 1153.1 1603.59 1411.39 1731.17 1646.39C1858.75 1881.39 1799.66 2020.21 1559.05 2084.21C1366.57 2135.41 1249.94 1920.4 1205.01 1797.87C1136.68 1697.15 985.977 1547.87 842.541 1743.19C699.106 1938.51 484.605 1839.28 381.404 1765.9" stroke="url(#paint64_linear_1245_3)" stroke-width="4"/>
<path d="M2400.87 866.925C2367.66 951.241 2254.8 1111.45 1986.94 1129.71C1652.11 1152.53 1608.1 1415.99 1735.68 1650.99C1863.26 1885.99 1802.45 2029.18 1561.85 2093.19C1369.36 2144.39 1249.18 1926.5 1204.25 1803.97C1135.91 1703.25 981.573 1553.41 838.138 1748.74C694.702 1944.06 475.575 1845.04 372.374 1771.66" stroke="url(#paint65_linear_1245_3)" stroke-width="4"/>
<path d="M2411.98 863.757C2378.77 948.073 2261.8 1110.88 1993.94 1129.14C1659.11 1151.96 1612.61 1420.58 1740.19 1655.58C1867.77 1890.58 1805.25 2038.16 1564.64 2102.16C1372.16 2153.36 1248.42 1932.6 1203.49 1810.07C1135.15 1709.35 977.174 1558.96 833.739 1754.28C690.303 1949.61 466.549 1850.81 363.349 1777.43" stroke="url(#paint66_linear_1245_3)" stroke-width="4"/>
<path d="M2423.08 860.586C2389.87 944.902 2268.8 1110.3 2000.93 1128.56C1666.1 1151.39 1617.12 1425.17 1744.7 1660.17C1872.28 1895.17 1808.04 2047.13 1567.44 2111.13C1374.95 2162.34 1247.65 1938.7 1202.72 1816.17C1134.39 1715.45 972.77 1564.5 829.335 1759.83C685.899 1955.15 457.519 1856.57 354.318 1783.2" stroke="url(#paint67_linear_1245_3)" stroke-width="4"/>
<defs>
<linearGradient id="paint0_linear_1245_3" x1="1599.53" y1="1421.93" x2="1151.72" y2="1115.53" gradientUnits="userSpaceOnUse">
<stop stop-color="#9C3502"/>
<stop offset="1" stop-color="#361301"/>
</linearGradient>
<linearGradient id="paint1_linear_1245_3" x1="1605.56" y1="1425.24" x2="1148.64" y2="1112.6" gradientUnits="userSpaceOnUse">
<stop stop-color="#9C3502"/>
<stop offset="1" stop-color="#361301"/>
</linearGradient>
<linearGradient id="paint2_linear_1245_3" x1="1611.6" y1="1428.54" x2="1145.56" y2="1109.67" gradientUnits="userSpaceOnUse">
<stop stop-color="#9C3502"/>
<stop offset="1" stop-color="#361301"/>
</linearGradient>
<linearGradient id="paint3_linear_1245_3" x1="1617.63" y1="1431.86" x2="1142.47" y2="1106.76" gradientUnits="userSpaceOnUse">
<stop stop-color="#9C3502"/>
<stop offset="1" stop-color="#361301"/>
</linearGradient>
<linearGradient id="paint4_linear_1245_3" x1="1623.65" y1="1435.19" x2="1139.38" y2="1103.84" gradientUnits="userSpaceOnUse">
<stop stop-color="#9C3502"/>
<stop offset="1" stop-color="#361301"/>
</linearGradient>
<linearGradient id="paint5_linear_1245_3" x1="1629.68" y1="1438.52" x2="1136.29" y2="1100.94" gradientUnits="userSpaceOnUse">
<stop stop-color="#9C3502"/>
<stop offset="1" stop-color="#361301"/>
</linearGradient>
<linearGradient id="paint6_linear_1245_3" x1="1635.7" y1="1441.87" x2="1133.19" y2="1098.04" gradientUnits="userSpaceOnUse">
<stop stop-color="#9C3502"/>
<stop offset="1" stop-color="#361301"/>
</linearGradient>
<linearGradient id="paint7_linear_1245_3" x1="1641.72" y1="1445.22" x2="1130.08" y2="1095.15" gradientUnits="userSpaceOnUse">
<stop stop-color="#9C3502"/>
<stop offset="1" stop-color="#361301"/>
</linearGradient>
<linearGradient id="paint8_linear_1245_3" x1="1647.73" y1="1448.57" x2="1126.97" y2="1092.26" gradientUnits="userSpaceOnUse">
<stop stop-color="#9C3502"/>
<stop offset="1" stop-color="#361301"/>
</linearGradient>
<linearGradient id="paint9_linear_1245_3" x1="1653.75" y1="1451.94" x2="1123.86" y2="1089.38" gradientUnits="userSpaceOnUse">
<stop stop-color="#9C3502"/>
<stop offset="1" stop-color="#361301"/>
</linearGradient>
<linearGradient id="paint10_linear_1245_3" x1="1659.76" y1="1455.31" x2="1120.74" y2="1086.51" gradientUnits="userSpaceOnUse">
<stop stop-color="#9C3502"/>
<stop offset="1" stop-color="#361301"/>
</linearGradient>
<linearGradient id="paint11_linear_1245_3" x1="1665.77" y1="1458.7" x2="1117.62" y2="1083.64" gradientUnits="userSpaceOnUse">
<stop stop-color="#9C3502"/>
<stop offset="1" stop-color="#361301"/>
</linearGradient>
<linearGradient id="paint12_linear_1245_3" x1="1671.77" y1="1462.09" x2="1114.49" y2="1080.79" gradientUnits="userSpaceOnUse">
<stop stop-color="#9C3502"/>
<stop offset="1" stop-color="#361301"/>
</linearGradient>
<linearGradient id="paint13_linear_1245_3" x1="1677.77" y1="1465.49" x2="1111.36" y2="1077.94" gradientUnits="userSpaceOnUse">
<stop stop-color="#9C3502"/>
<stop offset="1" stop-color="#361301"/>
</linearGradient>
<linearGradient id="paint14_linear_1245_3" x1="1683.77" y1="1468.89" x2="1108.22" y2="1075.09" gradientUnits="userSpaceOnUse">
<stop stop-color="#9C3502"/>
<stop offset="1" stop-color="#361301"/>
</linearGradient>
<linearGradient id="paint15_linear_1245_3" x1="1689.76" y1="1472.31" x2="1105.07" y2="1072.26" gradientUnits="userSpaceOnUse">
<stop stop-color="#9C3502"/>
<stop offset="1" stop-color="#361301"/>
</linearGradient>
<linearGradient id="paint16_linear_1245_3" x1="1695.75" y1="1475.74" x2="1101.93" y2="1069.43" gradientUnits="userSpaceOnUse">
<stop stop-color="#9C3502"/>
<stop offset="1" stop-color="#361301"/>
</linearGradient>
<linearGradient id="paint17_linear_1245_3" x1="1701.74" y1="1479.17" x2="1098.77" y2="1066.62" gradientUnits="userSpaceOnUse">
<stop stop-color="#9C3502"/>
<stop offset="1" stop-color="#361301"/>
</linearGradient>
<linearGradient id="paint18_linear_1245_3" x1="1707.72" y1="1482.62" x2="1095.61" y2="1063.8" gradientUnits="userSpaceOnUse">
<stop stop-color="#9C3502"/>
<stop offset="1" stop-color="#361301"/>
</linearGradient>
<linearGradient id="paint19_linear_1245_3" x1="1713.7" y1="1486.07" x2="1092.45" y2="1061" gradientUnits="userSpaceOnUse">
<stop stop-color="#9C3502"/>
<stop offset="1" stop-color="#361301"/>
</linearGradient>
<linearGradient id="paint20_linear_1245_3" x1="1719.67" y1="1489.54" x2="1089.27" y2="1058.21" gradientUnits="userSpaceOnUse">
<stop stop-color="#9C3502"/>
<stop offset="1" stop-color="#361301"/>
</linearGradient>
<linearGradient id="paint21_linear_1245_3" x1="1725.64" y1="1493.01" x2="1086.1" y2="1055.42" gradientUnits="userSpaceOnUse">
<stop stop-color="#9C3502"/>
<stop offset="1" stop-color="#361301"/>
</linearGradient>
<linearGradient id="paint22_linear_1245_3" x1="1731.61" y1="1496.49" x2="1082.92" y2="1052.64" gradientUnits="userSpaceOnUse">
<stop stop-color="#9C3502"/>
<stop offset="1" stop-color="#361301"/>
</linearGradient>
<linearGradient id="paint23_linear_1245_3" x1="1737.57" y1="1499.98" x2="1079.73" y2="1049.88" gradientUnits="userSpaceOnUse">
<stop stop-color="#9C3502"/>
<stop offset="1" stop-color="#361301"/>
</linearGradient>
<linearGradient id="paint24_linear_1245_3" x1="1743.53" y1="1503.49" x2="1076.53" y2="1047.12" gradientUnits="userSpaceOnUse">
<stop stop-color="#9C3502"/>
<stop offset="1" stop-color="#361301"/>
</linearGradient>
<linearGradient id="paint25_linear_1245_3" x1="1749.48" y1="1507" x2="1073.33" y2="1044.37" gradientUnits="userSpaceOnUse">
<stop stop-color="#9C3502"/>
<stop offset="1" stop-color="#361301"/>
</linearGradient>
<linearGradient id="paint26_linear_1245_3" x1="1755.43" y1="1510.52" x2="1070.12" y2="1041.63" gradientUnits="userSpaceOnUse">
<stop stop-color="#9C3502"/>
<stop offset="1" stop-color="#361301"/>
</linearGradient>
<linearGradient id="paint27_linear_1245_3" x1="1761.38" y1="1514.05" x2="1066.91" y2="1038.89" gradientUnits="userSpaceOnUse">
<stop stop-color="#9C3502"/>
<stop offset="1" stop-color="#361301"/>
</linearGradient>
<linearGradient id="paint28_linear_1245_3" x1="1767.32" y1="1517.6" x2="1063.69" y2="1036.17" gradientUnits="userSpaceOnUse">
<stop stop-color="#9C3502"/>
<stop offset="1" stop-color="#361301"/>
</linearGradient>
<linearGradient id="paint29_linear_1245_3" x1="1773.25" y1="1521.16" x2="1060.46" y2="1033.46" gradientUnits="userSpaceOnUse">
<stop stop-color="#9C3502"/>
<stop offset="1" stop-color="#361301"/>
</linearGradient>
<linearGradient id="paint30_linear_1245_3" x1="1779.18" y1="1524.72" x2="1057.23" y2="1030.75" gradientUnits="userSpaceOnUse">
<stop stop-color="#9C3502"/>
<stop offset="1" stop-color="#361301"/>
</linearGradient>
<linearGradient id="paint31_linear_1245_3" x1="1785.11" y1="1528.3" x2="1053.99" y2="1028.06" gradientUnits="userSpaceOnUse">
<stop stop-color="#9C3502"/>
<stop offset="1" stop-color="#361301"/>
</linearGradient>
<linearGradient id="paint32_linear_1245_3" x1="1791.03" y1="1531.88" x2="1050.74" y2="1025.37" gradientUnits="userSpaceOnUse">
<stop stop-color="#9C3502"/>
<stop offset="1" stop-color="#361301"/>
</linearGradient>
<linearGradient id="paint33_linear_1245_3" x1="1796.94" y1="1535.48" x2="1047.49" y2="1022.69" gradientUnits="userSpaceOnUse">
<stop stop-color="#9C3502"/>
<stop offset="1" stop-color="#361301"/>
</linearGradient>
<linearGradient id="paint34_linear_1245_3" x1="1802.85" y1="1539.09" x2="1044.23" y2="1020.03" gradientUnits="userSpaceOnUse">
<stop stop-color="#9C3502"/>
<stop offset="1" stop-color="#361301"/>
</linearGradient>
<linearGradient id="paint35_linear_1245_3" x1="1808.76" y1="1542.71" x2="1040.97" y2="1017.38" gradientUnits="userSpaceOnUse">
<stop stop-color="#9C3502"/>
<stop offset="1" stop-color="#361301"/>
</linearGradient>
<linearGradient id="paint36_linear_1245_3" x1="1814.66" y1="1546.34" x2="1037.69" y2="1014.73" gradientUnits="userSpaceOnUse">
<stop stop-color="#9C3502"/>
<stop offset="1" stop-color="#361301"/>
</linearGradient>
<linearGradient id="paint37_linear_1245_3" x1="1820.56" y1="1549.98" x2="1034.42" y2="1012.09" gradientUnits="userSpaceOnUse">
<stop stop-color="#9C3502"/>
<stop offset="1" stop-color="#361301"/>
</linearGradient>
<linearGradient id="paint38_linear_1245_3" x1="1826.45" y1="1553.63" x2="1031.13" y2="1009.46" gradientUnits="userSpaceOnUse">
<stop stop-color="#9C3502"/>
<stop offset="1" stop-color="#361301"/>
</linearGradient>
<linearGradient id="paint39_linear_1245_3" x1="1832.33" y1="1557.3" x2="1027.83" y2="1006.85" gradientUnits="userSpaceOnUse">
<stop stop-color="#9C3502"/>
<stop offset="1" stop-color="#361301"/>
</linearGradient>
<linearGradient id="paint40_linear_1245_3" x1="1838.22" y1="1560.97" x2="1024.54" y2="1004.24" gradientUnits="userSpaceOnUse">
<stop stop-color="#9C3502"/>
<stop offset="1" stop-color="#361301"/>
</linearGradient>
<linearGradient id="paint41_linear_1245_3" x1="1844.09" y1="1564.66" x2="1021.23" y2="1001.65" gradientUnits="userSpaceOnUse">
<stop stop-color="#9C3502"/>
<stop offset="1" stop-color="#361301"/>
</linearGradient>
<linearGradient id="paint42_linear_1245_3" x1="1849.96" y1="1568.36" x2="1017.92" y2="999.06" gradientUnits="userSpaceOnUse">
<stop stop-color="#9C3502"/>
<stop offset="1" stop-color="#361301"/>
</linearGradient>
<linearGradient id="paint43_linear_1245_3" x1="1855.83" y1="1572.06" x2="1014.6" y2="996.481" gradientUnits="userSpaceOnUse">
<stop stop-color="#9C3502"/>
<stop offset="1" stop-color="#361301"/>
</linearGradient>
<linearGradient id="paint44_linear_1245_3" x1="1861.69" y1="1575.78" x2="1011.27" y2="993.913" gradientUnits="userSpaceOnUse">
<stop stop-color="#9C3502"/>
<stop offset="1" stop-color="#361301"/>
</linearGradient>
<linearGradient id="paint45_linear_1245_3" x1="1867.54" y1="1579.51" x2="1007.93" y2="991.357" gradientUnits="userSpaceOnUse">
<stop stop-color="#9C3502"/>
<stop offset="1" stop-color="#361301"/>
</linearGradient>
<linearGradient id="paint46_linear_1245_3" x1="1873.4" y1="1583.25" x2="1004.6" y2="988.807" gradientUnits="userSpaceOnUse">
<stop stop-color="#9C3502"/>
<stop offset="1" stop-color="#361301"/>
</linearGradient>
<linearGradient id="paint47_linear_1245_3" x1="1879.24" y1="1587" x2="1001.25" y2="986.269" gradientUnits="userSpaceOnUse">
<stop stop-color="#9C3502"/>
<stop offset="1" stop-color="#361301"/>
</linearGradient>
<linearGradient id="paint48_linear_1245_3" x1="1885.09" y1="1590.76" x2="997.901" y2="983.736" gradientUnits="userSpaceOnUse">
<stop stop-color="#9C3502"/>
<stop offset="1" stop-color="#361301"/>
</linearGradient>
<linearGradient id="paint49_linear_1245_3" x1="1890.93" y1="1594.53" x2="994.546" y2="981.212" gradientUnits="userSpaceOnUse">
<stop stop-color="#9C3502"/>
<stop offset="1" stop-color="#361301"/>
</linearGradient>
<linearGradient id="paint50_linear_1245_3" x1="1896.76" y1="1598.31" x2="991.181" y2="978.7" gradientUnits="userSpaceOnUse">
<stop stop-color="#9C3502"/>
<stop offset="1" stop-color="#361301"/>
</linearGradient>
<linearGradient id="paint51_linear_1245_3" x1="1902.59" y1="1602.1" x2="987.81" y2="976.194" gradientUnits="userSpaceOnUse">
<stop stop-color="#9C3502"/>
<stop offset="1" stop-color="#361301"/>
</linearGradient>
<linearGradient id="paint52_linear_1245_3" x1="1908.42" y1="1605.89" x2="984.438" y2="973.695" gradientUnits="userSpaceOnUse">
<stop stop-color="#9C3502"/>
<stop offset="1" stop-color="#361301"/>
</linearGradient>
<linearGradient id="paint53_linear_1245_3" x1="1914.24" y1="1609.7" x2="981.059" y2="971.205" gradientUnits="userSpaceOnUse">
<stop stop-color="#9C3502"/>
<stop offset="1" stop-color="#361301"/>
</linearGradient>
<linearGradient id="paint54_linear_1245_3" x1="1920.06" y1="1613.52" x2="977.676" y2="968.722" gradientUnits="userSpaceOnUse">
<stop stop-color="#9C3502"/>
<stop offset="1" stop-color="#361301"/>
</linearGradient>
<linearGradient id="paint55_linear_1245_3" x1="1925.88" y1="1617.34" x2="974.286" y2="966.247" gradientUnits="userSpaceOnUse">
<stop stop-color="#9C3502"/>
<stop offset="1" stop-color="#361301"/>
</linearGradient>
<linearGradient id="paint56_linear_1245_3" x1="1931.69" y1="1621.17" x2="970.894" y2="963.776" gradientUnits="userSpaceOnUse">
<stop stop-color="#9C3502"/>
<stop offset="1" stop-color="#361301"/>
</linearGradient>
<linearGradient id="paint57_linear_1245_3" x1="1937.51" y1="1625.01" x2="967.497" y2="961.311" gradientUnits="userSpaceOnUse">
<stop stop-color="#9C3502"/>
<stop offset="1" stop-color="#361301"/>
</linearGradient>
<linearGradient id="paint58_linear_1245_3" x1="1943.31" y1="1628.85" x2="964.094" y2="958.857" gradientUnits="userSpaceOnUse">
<stop stop-color="#9C3502"/>
<stop offset="1" stop-color="#361301"/>
</linearGradient>
<linearGradient id="paint59_linear_1245_3" x1="1949.12" y1="1632.7" x2="960.69" y2="956.403" gradientUnits="userSpaceOnUse">
<stop stop-color="#9C3502"/>
<stop offset="1" stop-color="#361301"/>
</linearGradient>
<linearGradient id="paint60_linear_1245_3" x1="1954.93" y1="1636.56" x2="957.278" y2="953.958" gradientUnits="userSpaceOnUse">
<stop stop-color="#9C3502"/>
<stop offset="1" stop-color="#361301"/>
</linearGradient>
<linearGradient id="paint61_linear_1245_3" x1="1960.73" y1="1640.43" x2="953.864" y2="951.52" gradientUnits="userSpaceOnUse">
<stop stop-color="#9C3502"/>
<stop offset="1" stop-color="#361301"/>
</linearGradient>
<linearGradient id="paint62_linear_1245_3" x1="1966.53" y1="1644.3" x2="950.445" y2="949.082" gradientUnits="userSpaceOnUse">
<stop stop-color="#9C3502"/>
<stop offset="1" stop-color="#361301"/>
</linearGradient>
<linearGradient id="paint63_linear_1245_3" x1="1972.33" y1="1648.17" x2="947.032" y2="946.647" gradientUnits="userSpaceOnUse">
<stop stop-color="#9C3502"/>
<stop offset="1" stop-color="#361301"/>
</linearGradient>
<linearGradient id="paint64_linear_1245_3" x1="1978.13" y1="1652.05" x2="943.608" y2="944.22" gradientUnits="userSpaceOnUse">
<stop stop-color="#9C3502"/>
<stop offset="1" stop-color="#361301"/>
</linearGradient>
<linearGradient id="paint65_linear_1245_3" x1="1983.93" y1="1655.94" x2="940.181" y2="941.796" gradientUnits="userSpaceOnUse">
<stop stop-color="#9C3502"/>
<stop offset="1" stop-color="#361301"/>
</linearGradient>
<linearGradient id="paint66_linear_1245_3" x1="1989.73" y1="1659.83" x2="936.757" y2="939.377" gradientUnits="userSpaceOnUse">
<stop stop-color="#9C3502"/>
<stop offset="1" stop-color="#361301"/>
</linearGradient>
<linearGradient id="paint67_linear_1245_3" x1="1995.52" y1="1663.73" x2="933.325" y2="936.959" gradientUnits="userSpaceOnUse">
<stop stop-color="#9C3502"/>
<stop offset="1" stop-color="#361301"/>
</linearGradient>
</defs>
</svg>